<?xml version="1.0" standalone="no"?>
<!DOCTYPE svg PUBLIC "-//W3C//DTD SVG 20010904//EN"
 "http://www.w3.org/TR/2001/REC-SVG-20010904/DTD/svg10.dtd">
<svg version="1.0" xmlns="http://www.w3.org/2000/svg"
 width="1024.000000pt" height="1024.000000pt" viewBox="0 0 1024.000000 1024.000000"
 preserveAspectRatio="xMidYMid meet">
<metadata>
Created by potrace 1.11, written by Peter Selinger 2001-2013
</metadata>
<g transform="translate(0.000000,1024.000000) scale(0.100000,-0.100000)"
fill="#000000" stroke="none">
<path d="M1509 8142 c-5 -13 -9 -29 -9 -35 0 -7 -11 -58 -25 -115 -14 -56 -27
-117 -30 -134 -3 -17 -8 -34 -10 -38 -2 -3 -6 -17 -9 -31 -4 -22 -81 -353 -91
-389 -2 -8 -15 -64 -29 -125 -21 -92 -37 -160 -81 -345 -8 -35 -25 -110 -40
-175 -9 -38 -19 -78 -21 -88 -6 -18 23 -18 718 -14 397 2 743 7 768 10 179 26
210 32 316 63 295 85 528 308 600 575 22 84 26 243 7 315 -34 133 -84 216
-194 326 -101 100 -213 155 -390 192 -121 25 -230 29 -868 30 l-603 1 -9 -23z"/>
<path d="M4580 8160 c-7 -4 -25 -89 -46 -210 -3 -14 -7 -31 -10 -39 -2 -8 -7
-30 -10 -50 -3 -20 -12 -67 -21 -106 -8 -38 -17 -81 -19 -95 -3 -14 -12 -59
-20 -100 -9 -41 -17 -84 -20 -95 -20 -103 -155 -775 -159 -793 l-6 -23 723 4
c398 2 734 7 748 10 14 3 43 8 65 11 22 3 56 8 75 11 44 8 217 54 239 64 120
57 163 80 201 110 53 42 153 144 193 198 34 45 102 186 111 228 3 17 9 41 12
55 13 53 12 225 -1 267 -7 24 -12 43 -10 43 7 0 -57 133 -83 174 -41 64 -161
179 -224 214 -54 31 -168 76 -219 86 -13 3 -48 9 -77 15 -30 6 -95 14 -145 17
-108 8 -1285 11 -1297 4z"/>
<path d="M7393 6840 c-1 -8 -14 -73 -28 -145 -15 -71 -29 -143 -32 -160 -4
-25 -11 -58 -38 -186 -2 -9 -6 -33 -9 -53 -3 -19 -11 -57 -17 -83 -6 -27 -13
-59 -15 -73 -3 -14 -40 -200 -83 -413 l-78 -388 726 4 c399 3 737 7 751 10 14
2 46 8 70 11 77 11 102 16 190 38 47 11 97 27 112 35 15 7 30 13 33 13 3 -1
26 8 51 20 26 11 49 20 51 20 21 0 154 104 208 162 112 122 171 268 182 454
11 189 -41 345 -162 483 -42 48 -118 121 -128 121 -4 0 -24 11 -45 23 -67 43
-229 93 -324 102 -21 2 -52 7 -70 11 -18 4 -328 8 -689 8 -582 2 -655 0 -656
-14z"/>
<path d="M1105 5855 c-9 -44 -19 -87 -21 -95 -11 -44 -106 -449 -110 -469 -3
-14 -7 -28 -9 -31 -2 -4 -6 -20 -9 -36 -3 -17 -22 -97 -42 -179 -41 -169 -43
-180 -50 -215 -3 -14 -7 -33 -10 -42 -3 -9 -7 -27 -10 -40 -11 -50 -14 -64
-19 -83 -17 -72 -47 -204 -51 -222 l-4 -21 717 3 c395 2 732 5 748 8 17 3 54
8 84 12 30 3 89 13 130 21 42 9 81 17 86 18 25 5 132 38 150 46 183 80 260
131 346 231 104 120 161 277 164 458 4 194 -52 331 -197 481 -38 40 -112 100
-123 100 -4 0 -19 8 -33 18 -57 40 -199 82 -362 108 -25 4 -340 7 -701 8
l-657 2 -17 -81z"/>
<path d="M4183 5925 c-1 -5 -8 -43 -17 -82 -9 -40 -18 -87 -21 -105 -3 -18
-11 -51 -17 -73 -5 -22 -12 -51 -14 -65 -4 -22 -13 -68 -20 -95 -1 -5 -7 -32
-13 -60 -6 -27 -13 -61 -16 -75 -5 -21 -15 -66 -41 -190 -3 -14 -27 -131 -55
-260 -27 -129 -61 -289 -75 -355 -14 -66 -27 -125 -29 -132 -3 -8 171 -10 708
-8 699 4 756 5 867 25 30 5 70 12 89 15 46 8 152 38 225 65 327 118 500 362
500 705 0 100 -4 132 -24 190 -38 115 -87 191 -177 279 -97 94 -227 165 -354
192 -169 36 -186 37 -855 38 -450 1 -661 -2 -661 -9z"/>
<path d="M6912 4456 c-7 -28 -14 -62 -16 -76 -3 -14 -7 -35 -10 -46 -2 -12 -7
-37 -10 -55 -3 -19 -8 -43 -10 -54 -8 -34 -48 -228 -52 -255 -3 -14 -7 -33
-10 -43 -3 -10 -7 -30 -9 -45 -2 -15 -11 -61 -19 -102 -9 -41 -44 -210 -77
-375 -33 -165 -66 -325 -73 -355 l-13 -56 676 2 c678 1 752 3 921 29 64 10 70
12 120 25 25 7 52 14 60 15 88 20 241 91 320 150 92 68 212 220 225 283 2 12
8 29 13 39 39 74 57 316 32 427 -20 85 -84 206 -142 267 -50 53 -163 136 -237
174 -65 33 -201 73 -306 91 -22 3 -340 7 -706 9 l-666 3 -11 -52z"/>
<path d="M3706 3568 c-3 -13 -12 -52 -20 -88 -8 -36 -17 -78 -20 -95 -4 -16
-9 -41 -12 -55 -3 -14 -7 -36 -10 -49 -3 -13 -11 -54 -19 -90 -15 -67 -52
-245 -61 -291 -3 -14 -10 -43 -15 -65 -5 -22 -12 -51 -15 -65 -3 -14 -19 -88
-35 -165 -17 -77 -32 -151 -35 -164 -3 -12 -11 -51 -19 -85 -8 -33 -16 -72
-19 -86 -2 -14 -12 -60 -21 -103 -9 -43 -14 -81 -11 -85 8 -7 1245 -6 1358 2
129 9 182 16 293 37 112 23 267 71 305 97 14 9 30 17 35 18 18 3 119 75 160
114 98 93 177 234 201 362 43 228 17 410 -80 553 -33 49 -174 185 -191 185 -7
0 -15 4 -17 8 -7 17 -146 75 -207 87 -13 2 -31 7 -41 10 -87 28 -221 33 -847
34 l-652 2 -5 -23z"/>
</g>
</svg>
